<svg width="275" height="275" viewBox="0 0 275 275" fill="none" xmlns="http://www.w3.org/2000/svg">
<g clip-path="url(#clip0_10_2)">
<rect x="-4" y="138.421" width="200" height="200" rx="11" transform="rotate(-45 -4 138.421)" fill="#18181B"/>
<path d="M198.389 84.52V199H182.012V120.533C182.012 119.261 182.038 117.883 182.091 116.399C182.197 114.862 182.33 113.325 182.489 111.788L145.68 179.761C144.249 182.57 142.05 183.974 139.082 183.974H136.458C133.437 183.974 131.238 182.57 129.86 179.761L92.4945 111.629C92.6535 113.166 92.7595 114.703 92.8125 116.24C92.9185 117.777 92.9715 119.208 92.9715 120.533V199H76.5945V84.52H90.507C92.15 84.52 93.422 84.679 94.323 84.997C95.224 85.262 96.0455 86.1365 96.7875 87.6205L133.517 154.162C134.312 155.699 135.054 157.289 135.743 158.932C136.485 160.522 137.147 162.165 137.73 163.861C138.366 162.165 139.029 160.495 139.718 158.853C140.46 157.157 141.228 155.54 142.023 154.003L178.196 87.6205C178.938 86.1365 179.759 85.262 180.66 84.997C181.561 84.679 182.833 84.52 184.476 84.52H198.389Z" fill="#E8E8E8"/>
</g>
<defs>
<clipPath id="clip0_10_2">
<rect width="275" height="275" fill="white"/>
</clipPath>
</defs>
</svg>