<svg width="213" height="213" viewBox="0 0 213 213" fill="none" xmlns="http://www.w3.org/2000/svg">
<path d="M0 24C0 10.7452 10.7452 0 24 0H189C202.255 0 213 10.7452 213 24V189C213 202.255 202.255 213 189 213H24C10.7452 213 0 202.255 0 189V24Z" fill="#18181B"/>
<path d="M122.96 68.747V149H109.806V97.163C109.806 95.091 109.917 92.8525 110.139 90.4475L85.8855 136.013C84.7385 138.196 82.981 139.288 80.613 139.288H78.504C76.136 139.288 74.3785 138.196 73.2315 136.013L48.7005 90.281C48.8115 91.502 48.904 92.7045 48.978 93.8885C49.052 95.0725 49.089 96.164 49.089 97.163V149H35.9355V68.747H47.202C47.868 68.747 48.4415 68.7655 48.9225 68.8025C49.4035 68.8395 49.829 68.932 50.199 69.08C50.606 69.228 50.9575 69.4685 51.2535 69.8015C51.5865 70.1345 51.901 70.5785 52.197 71.1335L76.2285 115.7C76.8575 116.884 77.431 118.105 77.949 119.363C78.504 120.621 79.0405 121.916 79.5585 123.248C80.0765 121.879 80.613 120.565 81.168 119.307C81.723 118.012 82.315 116.773 82.944 115.589L106.643 71.1335C106.939 70.5785 107.253 70.1345 107.586 69.8015C107.919 69.4685 108.271 69.228 108.641 69.08C109.048 68.932 109.492 68.8395 109.973 68.8025C110.453 68.7655 111.027 68.747 111.693 68.747H122.96Z" fill="#E8E8E8"/>
<path d="M181.73 156.437V165.317H137.996V156.437H181.73Z" fill="#E8E8E8"/>
</svg>
